<?xml version="1.0" encoding="UTF-8"?>
<svg version="1.1" viewBox="0 0 1024 1024" xmlns="http://www.w3.org/2000/svg">
<path d="m529.5 156.63c-11.454 2.407-22.827 8.59-31.341 17.038l-7.342 7.285-3.158-1.669c-5.374-2.84-13.18-2.285-20.839 1.483-7.611 3.743-12.054 8.315-15.591 16.04-3.538 7.728-2.903 18.035 1.666 27.024 2.547 5.012 3.573 6.189 4.912 5.637 0.931-0.385 2.517-0.935 3.524-1.223 1.314-0.377 1.659-1.12 1.224-2.637-2.049-7.138-1.82-11.551 0.888-17.084 3.079-6.294 7.154-9.83 14.023-12.171 6.267-2.136 14.137-1.309 20.294 2.132 2.585 1.445 4.851 2.179 5.033 1.631 0.896-2.686 7.652-10.277 11.967-13.444 2.666-1.957 8.424-4.79 12.794-6.296 6.917-2.382 9.5-2.739 19.946-2.755 8.413-0.013 13.943 0.511 18.5 1.751 21.945 5.974 37.872 20.832 35.557 33.171-1.223 6.518-9.6 11.448-16.223 9.549-4.613-1.323-6.896-2.748-13.818-8.619l-6.332-5.372 2.023 7.197c1.113 3.959 2.445 8 2.96 8.979 2.435 4.629 14.839 10.719 21.833 10.719 5.582 0 13.192-3.136 17.756-7.317 5.592-5.124 10.267-14.847 10.994-22.868 0.459-5.052 0.114-6.565-2.964-13.016-1.915-4.014-5.602-9.645-8.193-12.511-9.105-10.075-26.637-19.564-42.018-22.741-9.396-1.941-28.635-1.897-38.075 0.087m-110.52 84.616c-2.592 1.311-5.699 4.049-7.445 6.563-2.522 3.628-3.056 5.472-3.366 11.615-0.256 5.061 0.076 8.152 1.081 10.071l1.45 2.767 1.229-4.877c1.537-6.107 8.202-12.947 13.602-13.96 5.439-1.02 11.371 0.127 14.166 2.739l2.496 2.332-0.44 19.5c-0.373 16.545-0.755 20.364-2.523 25.2-2.735 7.483-8.635 16.033-15.601 22.607l-5.624 5.306v26.818c0 29.401 0.326 31.538 6.117 40.07 3.964 5.841 9.477 9.731 17.732 12.51l6.651 2.239 1 63.75 3.388 4.213c6.233 7.752 26.206 25.044 38.112 32.996 9.803 6.547 15.898 9.578 25.025 12.444 6.419 2.015 9.454 2.337 21.475 2.28 10.468-0.051 15.514-0.524 20-1.876 10.21-3.076 10.999-3.726 12.429-10.243 3.336-15.196 8.853-23.483 22.846-34.316 6.039-4.675 10.69-10.653 12.36-15.886 0.641-2.008 1.438-14.048 1.794-27.112 0.726-26.65 1.268-28.724 9.366-35.844 2.287-2.011 6.262-5.685 8.833-8.165 10.383-10.013 9.841-24.936-1.339-36.898-3.372-3.608-11.429-9.093-13.357-9.093-0.647 0-1.453 1.731-1.792 3.847-1.029 6.44-9.257 12.895-16.64 13.055-4.542 0.098-10.714-3.513-13.684-8.006l-2.816-4.261-0.567 26.933c-0.519 24.679-0.752 27.405-2.785 32.585-4.5 11.463-11.275 17.833-23.319 21.921-11.999 4.072-27.211 0.884-36.765-7.706-5.317-4.781-11.711-16.176-12.269-21.868l-0.295-3 11.208-0.282 11.207-0.283 1.596 3.086c3.203 6.193 4.732 6.979 13.588 6.979 7.751 0 8.222-0.132 10.968-3.072 1.578-1.689 3.17-4.674 3.537-6.633 0.368-1.959 0.342-17.82-0.056-35.247l-0.725-31.685 5.589-5.108c3.073-2.81 8.176-6.379 11.338-7.932 5.489-2.695 6.507-2.839 22.404-3.172 19.068-0.399 24.312 0.606 32.742 6.279 2.807 1.889 5.078 3.128 5.046 2.752-0.032-0.375-5.019-4.901-11.082-10.057-6.064-5.156-12.676-11.512-14.693-14.125-2.934-3.801-5.021-5.287-10.441-7.432-20.145-7.975-35.781-24.12-41.344-42.69-1.295-4.324-2.168-5.79-3.209-5.391-10.839 4.159-24.131 3.263-42.848-2.889-22.402-7.363-31.313-7.218-47.919 0.783l-9.095 4.382-2.608-3.268c-3.413-4.278-11.946-8.495-17.187-8.495-2.259 0-6.085 1.008-8.541 2.25m44.408 78.659c-10.069 2.533-19.53 10.581-24.639 20.959l-3.145 6.389 2.311 1.871c1.503 1.217 3.906 1.872 6.869 1.872 5.674 0 17.34-1.943 18.841-3.137 0.772-0.615 1.311 0.302 1.734 2.952 1.365 8.533 8.231 14.185 17.233 14.185 9.382 0 16.413-7.801 16.413-18.212 0-2.633 0.35-4.788 0.777-4.788 2.603 0 11.896 8.436 17.383 15.777 2.169 2.903 4.37 5.013 4.892 4.691 0.521-0.322 0.948-6.439 0.948-13.592v-13.006l-5.75-5.483c-3.163-3.015-8.225-6.698-11.25-8.185-5.26-2.584-6.241-2.71-22.5-2.89-9.35-0.103-18.403 0.165-20.117 0.597m123.62 118.42c-4.375 2.106-5.737 2.174-49.115 2.472-42.814 0.294-44.863 0.223-50.719-1.75-3.357-1.131-6.576-2.056-7.155-2.056-1.856 0 3.054 8.188 8.127 13.552 3.099 3.277 7.218 6.262 11.14 8.074l6.222 2.874h31c29.967 0 31.188-0.076 36.647-2.283 7.093-2.868 14.1-8.975 17.901-15.602 4.673-8.148 3.928-9.119-4.048-5.281m-74 44.216c0 1.985 3.45 6.489 6.68 8.72 7.052 4.87 11.079 5.993 19.832 5.534 9.666-0.507 14.863-3.013 19.425-9.366 1.685-2.346 3.063-4.529 3.063-4.851 0-0.323-11.025-0.587-24.5-0.587s-24.5 0.247-24.5 0.55m292.31 21.95c5e-3 3.3 0.192 4.529 0.415 2.732 0.222-1.797 0.218-4.497-0.01-6-0.229-1.503-0.411-0.032-0.405 3.268m-364.31 35.869c0 7.873 0.297 20.498 0.659 28.054 0.648 13.513 0.718 13.837 4.25 19.614 1.975 3.231 5.816 8.932 8.536 12.669l4.945 6.794 0.662-3.168c0.93-4.452 5.335-11.639 9.049-14.764 4.738-3.986 9.717-5.694 16.751-5.747 5.469-0.04 7.485 0.516 14.5 4.004 4.481 2.228 11.389 6.808 15.351 10.178l7.202 6.127 2.966-2.193c2.149-1.588 4.847-2.318 9.797-2.648 5.909-0.393 7.507-0.107 11.83 2.118l4.998 2.572 4.002-4.33c12.594-13.627 30.468-19.137 43.058-13.275 6.182 2.878 11.828 9.255 14.009 15.822l1.632 4.914 4.444-6.305c2.444-3.468 6.337-9.208 8.651-12.756l4.208-6.451 0.296-27.461 0.296-27.462-9.342 8.913c-14.109 13.46-25.802 20.744-53.008 33.021-12.406 5.599-27.661 14.551-27.783 16.304-0.022 0.323-1.337 2.103-2.922 3.956l-2.882 3.369-5.716-6.13c-6.653-7.136-13.419-11.477-25.939-16.64-24.573-10.134-41.98-20.966-55.749-34.691l-8.751-8.723v14.315m221.74 11.881c0.299 2.337 1.557 6.275 2.794 8.75 14.361 28.73 29.42 77.404 29.485 95.301 9e-3 2.309 0.346 4.705 0.75 5.323s4.335 2.941 8.735 5.163 10.2 5.619 12.888 7.549l4.888 3.509-11.315 5.675c-10.703 5.367-18.75 9.989-32.431 18.627l-5.969 3.769 5.969 2.594c9.23 4.011 34.794 17.058 41.993 21.431l6.462 3.926 4.678-6.184c2.573-3.4 5.05-6.677 5.504-7.282 0.823-1.094-10.739-5.951-29.415-12.357-10.709-3.673-11.752-4.116-11.752-4.987 0-1.782 32.807-14.866 51.428-20.51l10.928-3.312-3.106-1.606c-1.707-0.883-8.468-5.098-15.023-9.367s-15.555-9.556-20.002-11.749l-8.083-3.988-3.677-13.012c-2.022-7.157-4.929-16.163-6.461-20.013-1.531-3.85-3.461-8.8-4.288-11-3.064-8.144-12.788-27.326-19.219-37.912-5.864-9.652-15.004-22.588-15.96-22.588-0.191 0-0.101 1.913 0.199 4.25m-257.94 5.824c-17.07 23.989-34.084 60.252-40.39 86.09-1.83 7.501-1.967 7.711-6.387 9.852-10.029 4.857-40.444 24.601-39.14 25.408 0.493 0.304 9.61 3.541 20.26 7.193 18.373 6.3 37.36 13.769 39.218 15.428 0.469 0.42-0.656 1.415-2.5 2.213-3.109 1.345-28.809 11.359-35.144 13.694-2.516 0.928-2.673 1.251-1.592 3.289 0.659 1.242 2.674 4.199 4.477 6.571 1.804 2.371 3.455 4.837 3.669 5.48 0.241 0.724 2.834-0.396 6.813-2.942 10.768-6.891 20.707-12.375 34.225-18.884l12.907-6.216-9.118-5.64c-9.973-6.169-33.637-19.014-36.989-20.078-1.156-0.367-2.102-1.054-2.102-1.527 0-1.644 7.127-6.717 16.036-11.415 6.725-3.546 8.964-5.226 8.964-6.728 0-1.101 1.357-8.832 3.016-17.182 4.3-21.649 12.412-45.557 26.446-77.951 2.716-6.269 4.535-11.881 4.352-13.426-0.28-2.364-1.047-1.624-7.021 6.771m452.21 44.426c2.987 3.025 5.657 5.5 5.932 5.5s-1.945-2.475-4.932-5.5-5.657-5.5-5.932-5.5 1.945 2.475 4.932 5.5m-275.42 6.008c-2.594 1.379-8.261 4.781-12.594 7.561-6.982 4.478-7.786 5.302-7.069 7.242 0.446 1.204 0.984 2.162 1.196 2.129s3.68-1.984 7.708-4.336c4.027-2.353 10.215-5.631 13.75-7.285 6.615-3.096 7.863-4.98 4.493-6.784-2.496-1.336-2.03-1.427-7.484 1.473m-96.832-0.929c-2.156 2.168-0.266 4.22 7.5 8.141 4.538 2.291 10.597 5.542 13.465 7.223 5.176 3.035 5.223 3.042 6.331 0.971 0.614-1.147 0.967-2.216 0.785-2.375s-4.965-3.302-10.628-6.985c-9.677-6.292-15.728-8.71-17.453-6.975m-34.338 45.423c0.316 1.374 1.512 6.998 2.656 12.498 5.357 25.734 30.285 91.342 53.195 140 10.574 22.459 28.061 57.335 30.084 60 1.426 1.879 2.609-0.214 19.501-34.5 24.914-50.567 42.587-92.167 54.805-129 5.013-15.113 10.347-32.5 10.347-33.726 0-0.276-1.825 2.232-4.057 5.573-7.546 11.301-18.328 17.464-30.358 17.352-10.466-0.097-17.165-2.919-25.007-10.535-3.491-3.39-6.535-6.798-6.765-7.572-0.347-1.168-1.261-1.083-5.366 0.5-6.011 2.318-16.636 2.324-23.947 0.012l-5-1.58-1.949 2.738c-3.311 4.651-9.817 10.307-15.051 13.084-4.448 2.36-6.103 2.652-15 2.652-8.887 0-10.559-0.294-15.02-2.649-10.134-5.349-17.73-16.248-20.954-30.067-0.768-3.292-1.687-6.276-2.042-6.632-0.356-0.355-0.388 0.478-0.072 1.852m79.088 43.888c-17.442 8.05-11.802 33.246 7.5 33.504 15.616 0.209 23.806-17.855 13.345-29.434-5.408-5.986-13.339-7.534-20.845-4.07m-1.134 66.029c-14.853 9.056-10.775 31.153 6.349 34.406 6.331 1.203 15.385-3.846 18.874-10.525 2.062-3.948 1.775-12.166-0.587-16.797-4.108-8.052-16.98-11.753-24.636-7.084m-196.62 72.813c2.337 0.211 6.163 0.211 8.5 0 2.337-0.21 0.425-0.383-4.25-0.383s-6.587 0.173-4.25 0.383m404 0c2.337 0.211 6.163 0.211 8.5 0 2.337-0.21 0.425-0.383-4.25-0.383s-6.587 0.173-4.25 0.383" fill="#fff" fill-rule="evenodd"/>
<path d="m543.25 154.74c3.163 0.198 8.337 0.198 11.5 0s0.575-0.361-5.75-0.361-8.913 0.163-5.75 0.361m-32.534 8.112c-2.631 1.549-5.331 3.389-6 4.089s1.034-0.067 3.784-1.704c2.75-1.636 5.9-3.47 7-4.075s1.55-1.106 1-1.114c-0.55-7e-3 -3.153 1.255-5.784 2.804m33.534 14.877c2.063 0.216 5.438 0.216 7.5 0 2.063-0.215 0.375-0.392-3.75-0.392s-5.812 0.177-3.75 0.392m76.512 27.911c-0.961 7.694-5.697 17.179-11.006 22.044-4.564 4.181-12.174 7.317-17.756 7.317-4.808 0-12.853-3.004-17.458-6.52-2.498-1.907-4.542-3.136-4.542-2.732s1.623 3.092 3.607 5.972c9.301 13.505 27.689 14.362 39.24 1.83 6.307-6.842 8.433-11.856 8.94-21.087 0.53-9.651-0.126-14.019-1.025-6.824m-166.01 40.425c-3.163 1.632-5.75 3.192-5.75 3.466 0 0.447 11.9-5.218 12.917-6.149 1.309-1.198-2.172 0.105-7.167 2.683m-31.25 7.898c-1.174 0.482 0.683 0.603 4.5 0.294 3.575-0.29 6.688-0.691 6.917-0.891 0.842-0.738-9.482-0.198-11.417 0.597m15.225 2.076c2.091 2.384 2.244 3.601 2.526 20l0.299 17.462 0.225-17.576 0.225-17.575-2.75-2.425-2.75-2.424 2.225 2.538m192.78 43.055c-7.885 1.964-20.806 2.364-27.382 0.848-2.41-0.556-4.611-0.781-4.891-0.501-0.998 0.998 7.164 9.82 16.372 17.696 5.145 4.401 9.253 8.533 9.128 9.183s0.561 1.049 1.523 0.887c0.962-0.161 1.75 0.213 1.75 0.832s1.519 3.001 3.375 5.294c6.091 7.52 7.981 12.912 5.425 15.468-1.876 1.876-4.04 1.462-11.946-2.288-4.045-1.919-9.379-3.76-11.854-4.092l-4.5-0.604-0.084 6.342c-0.046 3.488 0.096 5.104 0.317 3.592 0.505-3.473 1.767-3.453 7.396 0.117 17.595 11.158 21.708 30.868 8.999 43.124-2.571 2.48-6.546 6.154-8.833 8.165-8.098 7.12-8.64 9.194-9.366 35.844-0.356 13.064-1.153 25.104-1.794 27.112-1.67 5.233-6.321 11.21-12.36 15.887-13.905 10.766-18.6 17.695-22.617 33.376l-1.976 7.713 5.659-3.185c13.994-7.878 29.176-19.994 43.409-34.641l8.75-9.004v-30.195c0-17.459 0.406-30.954 0.964-31.995 0.58-1.084 2.666-2.073 5.241-2.485 5.885-0.941 13.243-5.917 17.736-11.995 6.872-9.297 7.059-10.389 7.059-41.198v-27.569l-5.046-5.661c-6.107-6.85-10.69-15.687-11.568-22.306-0.357-2.694-0.928-5.035-1.268-5.201-0.34-0.167-3.768 0.482-7.618 1.44m50.915 23.907c0 10.175 0.149 14.337 0.33 9.25 0.182-5.088 0.182-13.413 0-18.5-0.181-5.088-0.33-0.925-0.33 9.25m-257.95 1.25-5.969 6.25 6.25-5.969c5.806-5.544 6.708-6.531 5.969-6.531-0.155 0-2.968 2.813-6.25 6.25m49.281-4.506c4.538 0.185 11.962 0.185 16.5 0s0.825-0.337-8.25-0.337-12.788 0.152-8.25 0.337m81.703 11.312-3.953 4.056v34.853c0 19.169 0.36 34.219 0.8 33.444 1.085-1.913 20.692-2.063 20.715-0.159 0.011 0.833 0.339 0.75 0.985-0.25 0.554-0.858 0.985-11.774 1.007-25.5l0.037-24 3.968 5-1.611-3.97c-1.005-2.476-1.43-5.58-1.129-8.25 0.441-3.911 0.289-4.28-1.76-4.28-3.841 0-14.783 9.442-19.636 16.946l-2.876 4.446v-13.908-13.908l4.208-4.288c2.315-2.358 3.981-4.288 3.703-4.288s-2.284 1.825-4.458 4.056m-138.02 26.444c-1e-3 14.85 0.138 21.064 0.309 13.81 0.171-7.255 0.171-19.405 1e-3 -27-0.17-7.596-0.31-1.66-0.31 13.19m104.32-8.703 0.259 13.703-6.276-7 2.507 3.5c1.379 1.925 2.9 3.389 3.379 3.253 1.096-0.31 1.715-25.309 0.653-26.375-0.429-0.432-0.664 5.382-0.522 12.919m-23.643-2.047c0.123 6.103 0.565 5.505 1.108-1.5 0.181-2.337-0.021-4.25-0.448-4.25s-0.724 2.587-0.66 5.75m-39.616-3.724c-5.519 1.114-8.945 2.525-13.27 5.464l-3.694 2.51h3.9c6.355 0 16.931-2.122 18.814-3.774 0.962-0.845 1.75-2.366 1.75-3.381 0-2.002-1.062-2.118-7.5-0.819m35.372 16.632c-0.754 0.913-3.172 2.478-5.372 3.479-2.2 1-3.415 1.829-2.7 1.841 1.971 0.033 6.472-2.516 8.607-4.876 1.047-1.156 1.663-2.102 1.37-2.102-0.292 0-1.15 0.746-1.905 1.658m-140.7 6.526c-0.154 4.29-0.399 4.718-2.918 5.1l-2.75 0.416 2.781 0.15c3.268 0.176 4.001-1.202 3.454-6.495-0.384-3.714-0.405-3.684-0.567 0.829m368.23 1.059c0.081 3.522 0.443 4.274 2.098 4.355 1.41 0.07 1.5-0.022 0.304-0.312-1.142-0.277-1.826-1.698-2.098-4.356l-0.402-3.945 0.098 4.258m68.598 34.032c0 0.151 3.487 3.639 7.75 7.75l7.75 7.475-7.475-7.75c-6.943-7.198-8.025-8.206-8.025-7.475m-290.34 1.475c-0.255 0.413 4.85 0.75 11.345 0.75s11.6-0.337 11.345-0.75c-0.254-0.413-5.36-0.75-11.345-0.75s-11.091 0.337-11.345 0.75m237.83 6.242c4.389 1.584 8.128 2.733 8.307 2.553 0.501-0.501-13.129-5.553-14.809-5.489-0.814 0.031 2.112 1.352 6.502 2.936m-289.48 34.807 0.499 31.701 0.266-30.935c0.146-17.015-0.079-31.28-0.499-31.701-0.421-0.421-0.54 13.499-0.266 30.935m85.251-31.071c2.063 0.216 5.438 0.216 7.5 0 2.063-0.215 0.375-0.392-3.75-0.392s-5.812 0.177-3.75 0.392m123.09 16.272c0 4.125 0.177 5.813 0.392 3.75 0.216-2.062 0.216-5.437 0-7.5-0.215-2.062-0.392-0.375-0.392 3.75m-281.34 0.5c2.987 3.025 5.657 5.5 5.932 5.5s-1.945-2.475-4.932-5.5-5.657-5.5-5.932-5.5 1.945 2.475 4.932 5.5m-76.527 2.75-6.973 7.25 7.25-6.973c6.734-6.477 7.707-7.527 6.973-7.527-0.152 0-3.415 3.262-7.25 7.25m249.24 2.366c-0.339 0.34-4.127 0.952-8.417 1.361-7.663 0.73-7.695 0.744-1.8 0.806 5.233 0.055 16.615-2.4 12.417-2.678-0.871-0.058-1.861 0.172-2.2 0.511m-33.033 7.132c10.551 0.162 28.101 0.163 39 1e-3s2.266-0.294-19.184-0.294c-21.45-1e-3 -30.367 0.132-19.816 0.293m8.127 20c7.87 0.169 20.47 0.169 28-1e-3 7.529-0.169 1.089-0.308-14.311-0.307-15.4 0-21.56 0.139-13.689 0.308m-9.811 20.691c0 2.087 3.373 6.547 6.68 8.831 7.052 4.87 11.079 5.993 19.832 5.534 9.666-0.507 14.863-3.013 19.425-9.366 3.656-5.091 3.959-6.628 0.703-3.569-3.48 3.269-11.782 6.085-19.947 6.766-6.13 0.511-8.375 0.208-15.193-2.055-4.4-1.461-8.788-3.589-9.75-4.729s-1.75-1.775-1.75-1.412m324.38 20.561c0 6.325 0.163 8.913 0.361 5.75s0.198-8.337 0-11.5-0.361-0.575-0.361 5.75m-568.07 0.5c5e-3 3.3 0.192 4.529 0.415 2.732 0.222-1.797 0.218-4.497-0.01-6-0.229-1.503-0.411-0.032-0.405 3.268m355.69 29.803c-4.675 4.55-10.3 9.758-12.5 11.571-3.6 2.968-3.65 3.067-0.5 0.983 1.925-1.274 7.43-6.094 12.233-10.712l8.733-8.397 0.285 25.876 0.284 25.876 0.233-26.75c0.127-14.712 0.12-26.744-0.018-26.736s-4.075 3.738-8.75 8.289m-91.25-3.58c1.788 0.222 4.712 0.222 6.5 0 1.788-0.221 0.325-0.403-3.25-0.403s-5.038 0.182-3.25 0.403m259.44 21.467c-1.748 3.935-3.021 7.313-2.828 7.505 0.192 0.193 1.787-2.863 3.543-6.79 1.756-3.928 3.029-7.305 2.828-7.505-0.2-0.2-1.794 2.856-3.543 6.79m-131.05 0.81c-0.062 1.375 1.012 12.85 2.388 25.5 3.115 28.635 4.224 65.353 2.568 85-3.759 44.581-11.788 86.359-25.207 131.15-6.749 22.53-20.669 55.197-31.117 73.024l-3.596 6.136 5.528-2.445c7.097-3.139 13.661-6.467 14.303-7.253 0.276-0.339 2.526-1.696 5-3.016 5.91-3.154 20.997-14.088 20.997-15.217 0-0.485 0.563-0.887 1.25-0.891 0.688-4e-3 4.47-2.873 8.406-6.375 6.36-5.659 6.869-6.367 4.578-6.367-4.799 0-7.562-6.631-4.855-11.651 0.919-1.704 5.289-7.374 9.71-12.599 8.828-10.434 9.781-11.676 38.34-50 10.862-14.575 18.991-25.766 18.065-24.87-1.561 1.512-2.147 1.349-8.059-2.242-7.126-4.33-32.724-17.388-41.905-21.378l-5.969-2.594 5.969-3.769c13.681-8.638 21.728-13.26 32.431-18.627l11.315-5.675-4.888-3.509c-2.688-1.93-8.488-5.327-12.888-7.549s-8.331-4.545-8.735-5.163-0.741-3.014-0.75-5.323c-0.065-17.778-15.88-68.931-29.31-94.801-1.142-2.2-2.386-5.8-2.765-8-0.434-2.514-0.732-3.071-0.804-1.5m-254.53 12.267c-15.59 36.989-22.285 56.731-26.592 78.413-1.659 8.35-3.016 16.081-3.016 17.182 0 1.502-2.239 3.182-8.964 6.728-8.909 4.698-16.036 9.771-16.036 11.415 0 0.473 0.946 1.16 2.102 1.527 3.345 1.062 27.008 13.904 36.943 20.05l9.072 5.612-15.808 7.834c-13.721 6.8-28.063 14.916-35.313 19.983-2.142 1.497-2.075 1.632 7.216 14.5 14.265 19.755 34.838 47.103 41.743 55.489 13.684 16.618 14.045 17.137 14.045 20.167 0 2.009-1.018 4.005-3.11 6.097l-3.111 3.111 6.744 6.326c3.709 3.479 7.471 6.207 8.36 6.062s1.511 0.279 1.383 0.94c-0.403 2.066 15.414 13.112 27.484 19.196 2.337 1.178 4.257 1.795 4.265 1.371 9e-3 -0.423 0.381-0.194 0.828 0.511 0.447 0.704 3.104 2.151 5.905 3.215l5.091 1.935-8.859-17.216c-38.528-74.865-57.335-178.97-48.453-268.22 1.889-18.978 2.828-31.504 2.361-31.483-0.214 9e-3 -2.139 4.172-4.28 9.25m33.741 7.733c0 4.675 0.173 6.587 0.383 4.25 0.211-2.337 0.211-6.163 0-8.5-0.21-2.337-0.383-0.425-0.383 4.25m386.6 10.09c4.099 2.234 8.824 4.998 10.5 6.142 1.792 1.222 2.43 1.414 1.548 0.465-1.768-1.903-16.988-10.703-18.476-10.683-0.563 8e-3 2.33 1.842 6.428 4.076m30.026 22.189c4.663 4.796 8.621 8.721 8.797 8.721 0.851 0-3.974-5.154-10.27-10.971-6.547-6.049-6.451-5.902 1.473 2.25m-374.15 23.756c0.228 13.391 0.695 19.692 1.5 20.233 2.299 1.546 6.924-0.336 15.976-6.504l9.193-6.264 0.521-5.174c0.286-2.845 0.26-5.095-0.058-5-0.319 0.096-4.828-2.157-10.021-5.007-5.193-2.849-11.111-5.961-13.151-6.915-2.039-0.954-3.839-2.428-4-3.276-0.16-0.847-0.142 7.211 0.04 17.907m100.4-14.07c-3.445 1.63-9.52 4.88-13.5 7.222-3.979 2.342-7.572 4.158-7.985 4.036-0.413-0.123-0.75 1.983-0.75 4.68v4.903l9.9 6.084c13.171 8.093 14.606 8.604 17.118 6.092 1.821-1.821 1.982-3.367 1.982-18.982 0-9.35-0.112-17-0.25-16.999-0.138 0-3.069 1.334-6.515 2.964m43.192 8.114c-1.61 1.682-5.238 4.843-8.062 7.023l-5.135 3.964-0.424 9.717c-0.47 10.762-2.231 15.489-7.873 21.131-5.297 5.296-8.593 6.536-17.448 6.562-7.03 0.021-8.818-0.371-14.557-3.194-3.599-1.77-9.825-5.973-13.836-9.341-4.647-3.902-7.89-5.932-8.942-5.598-0.907 0.289-3.675 1.273-6.15 2.187-5.168 1.909-11.696 1.499-19.22-1.206l-4.778-1.718-3.251 3.054c-5.648 5.307-14.111 11.158-20.11 13.904-10.048 4.6-22.522 2.489-30.108-5.097-5.556-5.557-7.027-9.83-7.083-20.576l-0.049-9.609-8.345-6.737c-7.877-6.359-8.313-6.577-7.788-3.891 0.306 1.565 1.355 7.884 2.329 14.041 0.975 6.157 2.158 10.957 2.628 10.666s0.614 0.522 0.319 1.805c-0.296 1.284 0.122 4.809 0.927 7.834 1.154 4.339 1.353 4.656 0.943 1.5-0.286-2.2-0.778-4.9-1.092-6s-0.26-1.708 0.119-1.352c0.379 0.357 1.317 3.342 2.085 6.634 3.224 13.819 10.82 24.718 20.954 30.067 4.461 2.355 6.133 2.649 15.02 2.649 8.897 0 10.552-0.292 15-2.652 5.234-2.777 11.74-8.433 15.051-13.084l1.949-2.738 5 1.58c7.311 2.312 17.936 2.306 23.947-0.012 4.105-1.583 5.019-1.668 5.366-0.5 0.23 0.774 3.274 4.182 6.765 7.572 17.074 16.582 41.721 13.616 55.253-6.649 2.169-3.248 4.22-5.631 4.557-5.294 0.336 0.337 0.612 0.344 0.612 0.017 0-0.328 1.545-7.716 3.434-16.417 3.582-16.5 6.128-32.093 5.365-32.856-0.245-0.244-1.762 0.932-3.372 2.614m89.573 32.392c0 0.275 2.7 1.863 6 3.529s6 2.804 6 2.529-2.7-1.863-6-3.529-6-2.804-6-2.529m-371.5 5.661c-2.75 1.702-5.45 3.558-6 4.124-1.107 1.139 5.784-2.781 9.585-5.454 3.993-2.806 1.762-1.979-3.585 1.33m-28.5 18.526c0 2.065 27.988 15.204 42.25 19.835 13.32 4.325 17.708 6.507 13.083 6.507-0.916 0-1.382 0.284-1.035 0.631s2.268-0.146 4.27-1.096 3.255-2.07 2.786-2.49c-1.861-1.661-20.857-9.132-39.298-15.456-10.695-3.667-20.032-7.154-20.75-7.75-0.719-0.596-1.306-0.678-1.306-0.181m440.4 0.187c0.423 0.686 0.074 1.155-0.861 1.155-5.425 0-60.544 20.92-60.544 22.979 0 0.385 1.146 1.222 2.547 1.86 2.956 1.347 4.568 1.52 2.612 0.281-0.896-0.569 4.237-2.906 15.5-7.057 15.065-5.553 39.482-16.155 41.678-18.097 0.461-0.407 0.279-1.086-0.404-1.508-0.801-0.494-0.988-0.357-0.528 0.387m-579.05 11.655c-3e-3 4.95 0.166 7.101 0.376 4.78 0.209-2.321 0.212-6.371 5e-3 -9-0.206-2.629-0.378-0.73-0.381 4.22m434.24 5.1c-0.967 3.067-1.578 5.756-1.358 5.976s1.191-2.109 2.158-5.176 1.578-5.756 1.358-5.976-1.191 2.109-2.158 5.176m-253.39 14.072c-3.462 1.416-6.125 2.743-5.919 2.95 0.359 0.359 12.767-4.395 13.629-5.222 1.003-0.964-1.873-0.116-7.71 2.272m494.76 79.078-5.466 5.75 5.75-5.466c5.342-5.078 6.208-6.034 5.466-6.034-0.156 0-2.744 2.587-5.75 5.75m-23.248 18.67c-5.952 4.12-7.129 5.312-3.218 3.26 2.928-1.537 9.495-6.627 8.5-6.589-0.275 0.011-2.652 1.509-5.282 3.329m-551.72 17.944c0 0.781 13.98 4.989 14.58 4.389 0.261-0.261-2.327-1.26-5.75-2.221-3.424-0.96-6.811-1.971-7.527-2.246-0.717-0.275-1.303-0.24-1.303 0.078m83 7.636c-3.374 0.71-3.392 0.737-0.5 0.75 1.65 7e-3 4.35-0.33 6-0.75 2.662-0.677 2.718-0.762 0.5-0.75-1.375 7e-3 -4.075 0.345-6 0.75m-44 1.563c3.568 0.788 10 0.925 10 0.213 0-0.427-2.587-0.724-5.75-0.66s-5.075 0.265-4.25 0.447m29.728 0.159c1.775 0.221 4.925 0.224 7 8e-3 2.074-0.217 0.622-0.397-3.228-0.402-3.85-4e-3 -5.548 0.173-3.772 0.394m184.02 53.01c2.337 0.211 6.163 0.211 8.5 0 2.337-0.21 0.425-0.383-4.25-0.383s-6.587 0.173-4.25 0.383" fill="#ddd3c2" fill-rule="evenodd"/>
<path d="m529 123.62c-8.078 1.027-23.532 4.499-30.749 6.908-11.26 3.758-34.827 15.618-42.347 21.31-18.769 14.209-30.286 33.028-31.599 51.633l-0.567 8.027-7.031 1.726c-22.282 5.47-37.078 25.569-37.009 50.274 0.036 12.855 3.742 25.17 10.43 34.654 1.685 2.389 1.872 4.744 1.872 23.547v20.893l-3.919 3.827c-4.669 4.559-8.765 13.215-10.254 21.673-3.857 21.895 13.174 47.352 35.423 52.949l4.75 1.194v23.198c0 12.759 0.481 25.868 1.069 29.131 0.588 3.264 2.878 9.703 5.089 14.309 3.315 6.906 3.785 8.587 2.681 9.583-0.736 0.664-5.4 4.602-10.362 8.751-27.599 23.069-54.055 59.9-67.732 94.291-1.969 4.95-5.247 14.4-7.286 21-2.038 6.6-4.213 12.509-4.832 13.132-0.62 0.623-3.166 2.246-5.658 3.608-6.328 3.458-21.494 12.958-27.469 17.207-2.75 1.956-8.262 5.819-12.25 8.585-4.243 2.943-7.249 5.742-7.248 6.748 3e-3 3.436 20.344 43.077 33.724 65.72 13.759 23.286 47.913 70.468 62.521 86.369 3.938 4.286 4.085 4.348 7.749 3.25 5.917-1.772 8.869-1.34 13.483 1.974 3.581 2.571 4.653 2.907 6.363 1.992 2.931-1.569 5.158-5.097 5.158-8.172 0-2.751-0.3-3.172-16.09-22.609-12.136-14.939-58.349-77.56-59.375-80.456-0.336-0.947 3.899-3.069 14.244-7.136 8.096-3.184 16.409-6.297 18.471-6.918 2.063-0.621 3.75-1.441 3.75-1.821s-6.638-2.846-14.75-5.48c-12.973-4.212-42.306-17.732-42.225-19.463 0.036-0.778 30.465-20.227 37.475-23.952 3.3-1.753 6.316-3.501 6.701-3.885 0.386-0.383 2.257-6.095 4.158-12.694 6.79-23.571 20.07-52.579 32.96-71.999 5.851-8.815 13.88-19.635 14.276-19.238 0.345 0.345-1.692 25.849-3.494 43.738-5.379 53.412 0.985 120.73 16.941 179.18 9.739 35.675 18.753 59.305 33.312 87.321l8.314 16 12.416 4.181c20.52 6.911 32.848 8.82 56.916 8.814 20.827-5e-3 27.282-0.697 44-4.716 10.058-2.418 23.772-7.428 26.278-9.599 2.572-2.229 19.786-37.469 25.658-52.526 7.687-19.715 16.619-50.834 22.433-78.154 12.89-60.582 15.439-106.23 9.155-164-1.376-12.65-2.506-24.743-2.513-26.872-0.01-3.452 0.164-3.727 1.604-2.532 3.083 2.558 18.679 27.162 24.881 39.25 3.429 6.685 8.372 17.554 10.985 24.154 4.486 11.331 12.519 36.272 12.519 38.868 0 0.656 3.469 2.91 7.709 5.008s13.491 7.598 20.558 12.224c7.067 4.625 14.225 9.12 15.906 9.99 1.681 0.869 2.668 1.926 2.192 2.348-2.214 1.966-26.551 12.539-41.804 18.161-19.56 7.21-19.846 5.627 2.439 13.486 7.425 2.619 14.95 5.359 16.722 6.09l3.221 1.328-24.141 32.249c-13.277 17.736-26.511 35.398-29.408 39.248s-8.884 11.275-13.305 16.5c-9.447 11.165-11.609 14.794-10.779 18.099 1.655 6.59 5.805 7.799 12.101 3.526 4.251-2.885 8.123-3.24 13.68-1.254l3.591 1.284 5.616-6.667c13.308-15.801 42.534-56.036 55.559-76.488 14.845-23.31 38.591-69.449 37.951-73.741-0.417-2.803-26.987-21.135-47.848-33.012-4.456-2.537-4.593-2.769-7.336-12.416-5.977-21.017-19.557-50.84-30.856-67.759-12.193-18.258-28.642-36.288-50.518-55.373l-7.223-6.302 3.587-7.122c6.134-12.181 6.363-13.691 6.375-41.914l0.011-25.638 3.43-0.644c6.252-1.173 17.877-7.75 23.07-13.053 8.534-8.714 14.5-22.575 14.5-33.687 0-10.74-3.499-20.23-10.92-29.619l-4.08-5.161v-16.81-16.81l3.598-8.469c18.843-44.361 8.259-92.151-28.718-129.67-11.842-12.017-23.351-20.355-38.38-27.807-23.64-11.722-42.545-16.363-69-16.942-9.35-0.204-18.575-0.171-20.5 0.074m3 31.88c-15.2 3.073-24.415 7.809-34.287 17.62l-6.787 6.745-3.71-1.55c-9.212-3.849-24.219 0.848-31.309 9.801-4.237 5.349-7.854 14.371-7.883 19.664-0.027 4.795 2.872 14.232 6 19.534l2.064 3.498 3.814-1.629c3.724-1.59 3.792-1.711 2.85-5.121-2.523-9.138 1.416-19.499 9.43-24.804 3.688-2.441 5.102-2.76 12.244-2.76 6.525 0 9.02 0.465 13.002 2.425l4.927 2.425 1.573-2.416c5.453-8.38 13.628-14.578 23.919-18.135 5.642-1.95 8.628-2.294 19.653-2.266 9.307 0.024 14.81 0.538 19.372 1.809 19.416 5.411 34.03 18.033 34.106 29.458 0.046 6.964-5.374 12.2-12.63 12.2-4.179 0-10.43-3.478-17.101-9.514-3.334-3.017-6.274-5.486-6.533-5.486-0.531 0 3.4 13.956 5.17 18.361 5.716 14.215 21.503 20.987 34.387 14.75 5.269-2.551 11.564-8.994 14.908-15.262 2.024-3.792 2.321-5.758 2.321-15.349 0-8.322-0.441-12.077-1.811-15.422-7.684-18.766-30.224-34.44-56.123-39.027-7.901-1.4-23.517-1.176-31.566 0.451m-110.99 83.814c-10.561 3.363-16.793 18.051-12.595 29.684 1.65 4.572 2.803 4.425 3.824-0.487 1.878-9.039 7.283-13.603 16.928-14.293 6.217-0.445 7.159-0.262 9.373 1.817 2.433 2.286 2.46 2.506 2.46 19.927 0 26.173-2.375 33.119-16.309 47.701l-7.81 8.171 0.31 27.332c0.306 27.043 0.336 27.391 2.91 32.878 4.745 10.116 12.747 16.956 22.828 19.514l4.571 1.16 0.5 31.39c0.34 21.344 0.876 32.043 1.674 33.432 2.228 3.876 24.319 24.457 33.558 31.264 13.463 9.919 20.2 13.702 30.822 17.306 8.71 2.956 10.459 3.207 22.446 3.214 14.589 9e-3 21.872-1.478 31.92-6.519 15.294-7.673 33.125-21.383 48.83-37.545l8.75-9.004v-30.195c0-17.459 0.406-30.954 0.964-31.995 0.58-1.084 2.666-2.073 5.241-2.485 5.885-0.941 13.243-5.917 17.736-11.995 6.872-9.297 7.059-10.388 7.059-41.211v-27.583l-4.614-5.132c-6.145-6.835-10.104-13.963-11.475-20.662-0.619-3.025-1.267-6.009-1.441-6.631-0.223-0.798-2.617-0.58-8.143 0.742-19.229 4.602-38.825 0.272-56.791-12.548-11.967-8.539-21.36-22.838-25.151-38.284-0.231-0.941-1.196-0.904-4.221 0.163-10.873 3.836-20.805 2.902-42.262-3.973-12.195-3.908-15.058-4.469-22.818-4.469-9.99 0-18.212 2.127-26.942 6.97l-5.357 2.973-4.37-4.37c-6.606-6.606-14.44-8.794-22.405-6.257m157.4 80.583c-7.85 0.989-14.133 4.081-20.946 10.308l-5.464 4.994v14.095 14.096l2.876-4.446c4.838-7.48 15.793-16.946 19.612-16.946 2.039 0 2.184 0.385 1.8 4.75-0.491 5.565 2.537 12.413 6.888 15.581 4.267 3.107 11.463 3.289 16.811 0.425 5.873-3.146 8.043-7.003 8.305-14.762l0.208-6.178 4.483 0.605c2.465 0.332 7.921 2.218 12.122 4.19 4.202 1.971 8.437 3.428 9.41 3.237 10.07-1.979-3.894-22.048-19.408-27.895-6.092-2.296-25.959-3.408-36.697-2.054m-117.57 1.464c-9.683 3.54-16.729 9.673-20.838 18.137-2.758 5.681-2.884 8.433-0.464 10.079 1.813 1.233 2.46 1.104 5.775-1.149 4.469-3.036 9.531-4.901 15.843-5.836l4.661-0.69-0.065 4.314c-0.14 9.246 4.129 15.469 12.289 17.914 3.014 0.903 4.874 0.909 7.82 0.027 8.352-2.503 12.135-7.997 12.135-17.627 0-3.043 0.373-5.532 0.829-5.532 3.162 0 13.455 9.102 20.374 18.017l2.703 3.483 0.094-26.926-5.493-5.194c-9.641-9.117-12.042-9.842-33.507-10.117-13.459-0.172-19.496 0.128-22.156 1.1m-120.32 20.221c-10.955 2.026-29.43 8.345-40.175 13.741-39.299 19.737-71.642 57.738-85.72 100.72-4.273 13.043-5.424 19.097-6.653 34.995-0.891 11.528-0.224 26.788 1.593 36.477 0.516 2.747 0.177 3.263-3.497 5.328-17.875 10.046-41.044 32.733-54.426 53.293-14.917 22.92-25.65 51.884-25.643 69.205 3e-3 8.677 5.845 15.162 13.658 15.162 6.406 0 8.464-2.755 11.301-15.13 4.193-18.283 13.485-38.317 26.148-56.37 12.936-18.443 38.111-39.609 58.445-49.138 4.645-2.177 8.44-4.499 8.433-5.16s-0.932-4.127-2.056-7.702c-2.892-9.201-4.919-23.82-4.921-35.5-5e-3 -25.302 7.749-49.552 23.585-73.758 6.006-9.181 26.709-29.889 36.01-36.02 15.997-10.543 36.217-18.635 50.505-20.212l5.611-0.619 0.622-6.696c0.342-3.682 1.617-9.52 2.834-12.973 2.193-6.221 2.195-6.294 0.264-8.225-2.754-2.754-6.75-3.109-15.918-1.413m380.58-0.352c-4.377 2.311-4.71 4.015-2.248 11.524 1.242 3.787 2.521 9.441 2.844 12.565 0.322 3.123 0.914 5.679 1.315 5.679 3.226 0 18.839 3.396 24.491 5.327 24.021 8.208 50.268 28.155 66.02 50.173 5.792 8.095 14.629 25.996 18.268 37 4.414 13.35 5.678 22.181 5.656 39.5-0.018 13.572-0.371 16.93-2.839 27-1.551 6.325-3.016 12.625-3.256 14-0.402 2.304 0.409 2.908 10.357 7.709 39.395 19.013 73.732 62.511 81.874 103.72 2.304 11.66 5.051 15.119 11.895 14.976 5.396-0.113 8.919-2.343 11.75-7.435 3.733-6.717 0.679-23.956-8.169-46.12-11.656-29.193-33.534-56.643-62.056-77.861-6.875-5.114-12.408-9.618-12.295-10.009s0.966-6.283 1.895-13.094c5.212-38.201-9.722-83.748-38.831-118.44-20.98-25.001-53.851-45.803-85.118-53.866-12.59-3.246-18.611-3.903-21.553-2.35m-170.58 65.32c-3.145 5.367-5.484 6.448-13.952 6.448-7.007 0-10.398-1.833-13.116-7.088l-1.505-2.912h-11.054-11.054l0.646 3.25c1.883 9.479 10.766 21.818 18.513 25.717 8.29 4.172 21.279 5.039 31.177 2.079 6.023-1.801 13.056-7.185 17.043-13.046 3.638-5.349 7-15.227 6.041-17.75-0.335-0.883-3.355-1.25-10.273-1.25h-9.798l-2.668 4.552m37.978 31.808c-6.184 2.954-15.127 3.549-54.066 3.596-36.122 0.044-44.874-0.581-50.757-3.623-1.574-0.814-3.101-1.243-3.391-0.952-0.905 0.905 4.722 9.627 8.918 13.823 2.2 2.2 6.542 5.192 9.648 6.648l5.648 2.648h32 32l6.234-2.88c6.502-3.003 13.698-9.686 16.719-15.53 2.555-4.939 1.738-5.971-2.953-3.73m-74.5 44.518c0 1.623 2.491 2.965 10.517 5.668 6.824 2.299 9.022 2.602 15.141 2.092 8.117-0.677 17.205-3.724 19.861-6.659 1.78-1.967 1.644-1.979-21.864-1.979-13.01 0-23.655 0.395-23.655 0.878m-72.994 69.04c3e-3 14.833 0.45 28.129 1.012 30.082 0.553 1.925 4.675 8.651 9.159 14.946l8.153 11.447 1.717-5.267c4.102-12.581 15.234-20.187 27.453-18.756 7.126 0.834 18.639 6.87 26.982 14.147l7.171 6.253 2.423-1.851c5.898-4.504 16.744-4.472 24.579 0.072l3.155 1.829 3.064-3.812c3.255-4.051 14.234-11.807 20.228-14.29 13.688-5.67 28.283-0.978 34.76 11.175 1.726 3.238 3.138 6.892 3.138 8.119 0 3.378 1.632 1.577 11.119-12.276l8.381-12.236 0.642-57-8.821 8.574c-15.176 14.753-28.776 23.528-52.605 33.947-18.106 7.916-24.341 11.694-30.598 18.54l-5.035 5.51-6.792-6.902c-6.71-6.819-12.939-10.695-24.543-15.268-22.308-8.792-41.699-20.826-55.498-34.439l-9.25-9.125 6e-3 26.581m43.404 55.227c-1.256 2.033-0.414 40.227 0.907 41.114 2.314 1.555 6.922-0.316 15.99-6.495l9.193-6.264 0.529-5c0.29-2.75 1.041-5.891 1.668-6.981 1.031-1.789 0.353-2.498-7.01-7.343-15.627-10.283-19.49-11.922-21.277-9.031m88.214 6.105c-11.276 6.951-11.738 7.369-11.193 10.125 0.313 1.581 0.569 4.8 0.569 7.153v4.278l9.9 6.084c13.171 8.093 14.606 8.604 17.118 6.092 1.832-1.832 1.982-3.371 1.982-20.282 0-19.209-0.325-20.7-4.507-20.7-1.159 0-7.4 3.263-13.869 7.25m54.803 8.829c-1.61 1.682-5.238 4.843-8.062 7.023l-5.135 3.964-0.424 9.717c-0.47 10.762-2.231 15.489-7.873 21.131-5.297 5.296-8.593 6.536-17.448 6.562-7.03 0.021-8.818-0.371-14.557-3.194-3.599-1.77-9.825-5.973-13.836-9.341-4.647-3.902-7.89-5.932-8.942-5.598-0.907 0.289-3.675 1.273-6.15 2.187-5.168 1.909-11.696 1.499-19.22-1.206l-4.778-1.718-3.251 3.054c-5.648 5.307-14.111 11.158-20.11 13.904-10.048 4.6-22.522 2.489-30.108-5.097-5.556-5.557-7.027-9.83-7.083-20.576l-0.049-9.609-8.201-6.62c-4.51-3.641-8.2-6.293-8.199-5.891 5e-3 3.406 6.67 37.997 9.444 49.012 3.863 15.336 12.886 41.905 22.829 67.217 10.907 27.765 15.518 38.52 30.221 70.5 5.37 11.681 28.502 57.779 29.752 59.292 0.588 0.711 1.414 0.936 1.836 0.5 1.68-1.733 32.239-63.928 39.943-81.292 18.819-42.418 30.073-71.938 39.46-103.5 7.14-24.008 15.022-61.326 13.313-63.035-0.245-0.244-1.762 0.932-3.372 2.614m-99.437 76.171c-4.585 3.12-7.085 6.798-7.992 11.759-1.444 7.896 2.146 14.79 9.423 18.095 10.265 4.662 21.74-0.56 24.604-11.197 1.876-6.966-1.845-15.754-7.999-18.894-5.546-2.829-13.688-2.722-18.036 0.237m3.745 64.045c-4.288 1.372-9.477 5.897-10.824 9.439-1.373 3.611-1.094 12.015 0.5 15.066 2.322 4.444 6.804 8.006 11.729 9.319 11.679 3.114 23.409-7.991 21.345-20.208-1.745-10.329-12.641-16.85-22.75-13.616" fill="#5c5344" fill-rule="evenodd"/>
<path d="m345.5 406.42c-21.253 5.493-33.491 12.512-47.636 27.323-10.999 11.516-17.348 21.907-22.178 36.297-9.167 27.307-7.057 55.379 6.353 84.543 2.178 4.738 3.961 9.401 3.961 10.361 0 2.411-3.167 5.052-6.079 5.07-3.464 0.021-24.569 7.279-32.071 11.03-41.696 20.845-68.952 64.363-68.819 109.88 0.075 25.585 5.385 45.068 18.219 66.84 7.149 12.127 22.025 29.924 32.25 38.582 21.325 18.058 49.969 31.11 79.5 36.224 15.381 2.664 42.455 2.451 58.5-0.461 6.6-1.197 12.788-2.418 13.75-2.712 2.353-0.718 2.206-2.68-0.375-4.994-9.213-8.259-49.171-63.248-63.149-86.905-13.38-22.643-33.721-62.284-33.724-65.72-1e-3 -1.006 3.005-3.805 7.248-6.748 3.988-2.766 9.5-6.629 12.25-8.585 5.975-4.249 21.141-13.749 27.469-17.207 2.492-1.362 5.038-2.985 5.658-3.608 0.619-0.623 2.794-6.532 4.832-13.132 2.039-6.6 5.317-16.05 7.286-21 13.677-34.391 40.133-71.222 67.732-94.291 4.962-4.149 9.626-8.087 10.362-8.751 1.104-0.996 0.634-2.677-2.681-9.583-4.749-9.894-6.158-16.759-6.158-30.013v-9.771l-3.75-0.58c-23.764-3.674-42.011-16.792-52.829-37.981-2.002-3.921-3.751-6.101-5-6.232-1.056-0.111-5.971 0.844-10.921 2.123m369.05 1.476c-0.966 2.144-3.397 6.353-5.402 9.355-11.881 17.792-27.696 27.795-49.394 31.243l-3.75 0.596-0.011 12.204c-0.012 13.602-0.915 17.637-6.375 28.48l-3.587 7.122 7.223 6.302c21.876 19.085 38.325 37.115 50.518 55.373 11.299 16.919 24.879 46.742 30.856 67.759 2.743 9.647 2.88 9.879 7.336 12.416 20.861 11.877 47.431 30.209 47.848 33.012 0.64 4.292-23.106 50.431-37.951 73.741-12.843 20.166-41.858 60.199-54.245 74.842-2.865 3.387-5.515 6.662-5.889 7.278-0.76 1.251 7.659 3.485 20.777 5.515 11.445 1.771 42.792 1.504 54.5-0.464 33.851-5.69 63.456-20.876 87.068-44.661 21.734-21.895 34.081-45.468 40.074-76.51 4.545-23.544-0.157-53.014-11.887-74.5-13.47-24.672-34.113-44.904-58.095-56.938-6.975-3.5-20.682-8.491-26.16-9.526-5.851-1.105-8.783-2.597-9.348-4.757-0.548-2.097 0.116-4.04 7.104-20.779 6.41-15.357 8.597-26.143 8.517-42-0.084-16.791-2.879-28.746-10.169-43.5-13.689-27.702-33.499-43.958-64.522-52.948-11.972-3.47-12.902-3.386-15.036 1.345" fill="#06b8fa" fill-rule="evenodd"/>
</svg>
